<svg width="25" height="24" viewBox="0 0 25 24" fill="none" xmlns="http://www.w3.org/2000/svg">
<path d="M4.8125 18.12C5.875 17.34 7.0625 16.7248 8.375 16.2744C9.6875 15.8248 11.0625 15.6 12.5 15.6C13.9375 15.6 15.3125 15.8248 16.625 16.2744C17.9375 16.7248 19.125 17.34 20.1875 18.12C20.9167 17.3 21.4846 16.37 21.8913 15.33C22.2971 14.29 22.5 13.18 22.5 12C22.5 9.34 21.5262 7.0748 19.5788 5.2044C17.6304 3.3348 15.2708 2.4 12.5 2.4C9.72917 2.4 7.37 3.3348 5.4225 5.2044C3.47417 7.0748 2.5 9.34 2.5 12C2.5 13.18 2.70333 14.29 3.11 15.33C3.51583 16.37 4.08333 17.3 4.8125 18.12ZM12.5 13.2C11.2708 13.2 10.2342 12.7952 9.39 11.9856C8.54667 11.1752 8.125 10.18 8.125 9C8.125 7.82 8.54667 6.8248 9.39 6.0144C10.2342 5.2048 11.2708 4.8 12.5 4.8C13.7292 4.8 14.7658 5.2048 15.61 6.0144C16.4533 6.8248 16.875 7.82 16.875 9C16.875 10.18 16.4533 11.1752 15.61 11.9856C14.7658 12.7952 13.7292 13.2 12.5 13.2ZM12.5 24C10.7708 24 9.14583 23.6848 7.625 23.0544C6.10417 22.4248 4.78125 21.57 3.65625 20.49C2.53125 19.41 1.64083 18.14 0.985 16.68C0.328333 15.22 0 13.66 0 12C0 10.34 0.328333 8.78 0.985 7.32C1.64083 5.86 2.53125 4.59 3.65625 3.51C4.78125 2.43 6.10417 1.5748 7.625 0.9444C9.14583 0.3148 10.7708 0 12.5 0C14.2292 0 15.8542 0.3148 17.375 0.9444C18.8958 1.5748 20.2188 2.43 21.3438 3.51C22.4688 4.59 23.3592 5.86 24.015 7.32C24.6717 8.78 25 10.34 25 12C25 13.66 24.6717 15.22 24.015 16.68C23.3592 18.14 22.4688 19.41 21.3438 20.49C20.2188 21.57 18.8958 22.4248 17.375 23.0544C15.8542 23.6848 14.2292 24 12.5 24ZM12.5 21.6C13.6042 21.6 14.6458 21.4452 15.625 21.1356C16.6042 20.8252 17.5 20.38 18.3125 19.8C17.5 19.22 16.6042 18.7748 15.625 18.4644C14.6458 18.1548 13.6042 18 12.5 18C11.3958 18 10.3542 18.1548 9.375 18.4644C8.39583 18.7748 7.5 19.22 6.6875 19.8C7.5 20.38 8.39583 20.8252 9.375 21.1356C10.3542 21.4452 11.3958 21.6 12.5 21.6ZM12.5 10.8C13.0417 10.8 13.4896 10.63 13.8438 10.29C14.1979 9.95 14.375 9.52 14.375 9C14.375 8.48 14.1979 8.05 13.8438 7.71C13.4896 7.37 13.0417 7.2 12.5 7.2C11.9583 7.2 11.5104 7.37 11.1563 7.71C10.8021 8.05 10.625 8.48 10.625 9C10.625 9.52 10.8021 9.95 11.1563 10.29C11.5104 10.63 11.9583 10.8 12.5 10.8Z" fill="#777B85"/>
</svg>
