<svg width="84" height="84" viewBox="0 0 84 84" fill="none" xmlns="http://www.w3.org/2000/svg">
<g clip-path="url(#clip0_2807_2776)">
<circle cx="42" cy="42" r="41.75" fill="white" stroke="#C0C0C0" stroke-width="0.5"/>
<path d="M57.9472 28.7742C57.7481 23.4486 54.5253 15.8505 42.5758 16.822C40.5024 16.9169 38.4728 17.4269 36.6176 18.319C34.7624 19.2112 33.1228 20.4657 31.8043 22.0018C30.4859 23.5379 29.5179 25.3216 28.9626 27.2379C28.4073 29.1543 28.2771 31.1608 28.5804 33.1283C30.065 40.5876 35.732 41.0733 37.1985 45.9478L57.9472 28.7742Z" fill="#111111"/>
<path d="M44.8608 26.7674C44.3025 28.0852 44.2599 29.5567 44.7411 30.903C45.1725 31.9716 45.376 33.1144 45.3394 34.2619C44.9111 35.7022 44.0068 36.9647 42.7668 37.8539C42.4576 38.1022 42.1311 38.3292 41.7896 38.5335C41.4904 38.6888 41.1514 38.747 40.8523 38.9218C40.2258 39.2794 39.704 39.7874 39.3366 40.3974C38.8425 41.2971 38.4737 42.2569 38.2398 43.2515C38.0133 44.2447 37.6227 45.1955 37.0831 46.0668C36.4899 46.8905 35.6876 47.5506 34.7544 47.9827C33.8213 48.4148 32.7891 48.6043 31.7584 48.5326C30.0544 48.4067 28.4446 47.7223 27.1915 46.591C26.7977 46.2766 26.4838 45.8779 26.2741 45.4261C26.0989 46.7907 26.4391 48.1707 27.2314 49.3092C26.1705 49.5014 25.0779 49.4449 24.0438 49.1446C23.0098 48.8443 22.064 48.3088 21.2846 47.5822C20.5052 46.8557 19.9146 45.959 19.5615 44.9662C19.2085 43.9735 19.1032 42.9132 19.2543 41.873C19.4338 40.5915 19.9922 39.3878 20.2913 38.1063C21.0691 34.7085 17.938 32.8446 17.4195 29.7381C17.2747 28.7676 17.4378 27.7772 17.8868 26.8993C18.3359 26.0215 19.0495 25.2981 19.9323 24.8258C21.0092 24.2822 22.4251 23.991 22.8838 22.8842C23.3425 21.7775 22.8838 21.098 22.8838 20.1854C23.0114 19.2981 23.4138 18.4696 24.0373 17.8105C24.6608 17.1515 25.4759 16.6931 26.3738 16.4964C28.1288 15.9528 30.0234 15.9528 31.7783 15.448C33.5813 14.7015 35.4255 14.0533 37.3025 13.5064C38.4441 13.3302 39.6127 13.4272 40.7072 13.7892C41.8017 14.1512 42.7892 14.7671 43.5844 15.5839C44.3024 16.3411 44.7012 17.2148 45.3394 17.9915C45.9776 18.7681 46.9747 19.1758 47.4533 20.0884C47.7903 20.6793 47.977 21.3402 47.9978 22.0158C48.0186 22.6914 47.8729 23.362 47.573 23.9716C46.8949 24.9424 45.5388 25.6025 44.8608 26.7674Z" fill="#111111"/>
<path d="M71.1312 72.0789C70.6732 72.7833 70.4393 72.3525 69.947 73.0263C59.3681 81.5526 55.0756 82.4999 44.6049 83.7631C36.9177 83.4473 31.8944 83.2105 23.0523 79.1842C23.0483 79.1806 21.793 78.7159 21.7891 78.7105C20.9665 77.8027 20.7104 78.388 19.9418 77.3684C19.9562 77.2099 19.9247 70.2012 19.9418 70.0462C20.0497 69.0014 20.1695 68.0052 20.3037 67.0883C21.4027 59.5728 35.8634 51.6826 36.2398 51.4772C36.2451 51.4754 36.2478 51.4736 36.2478 51.4736C36.2478 51.4736 38.1088 60.8626 46.0835 60.742C51.5153 60.6609 50.4623 51.4736 50.4623 51.4736C50.4623 51.4736 50.5282 51.4916 50.6519 51.5276C52.2207 51.9834 63.1133 55.2584 67.4106 59.7278C68.7202 61.0896 69.6599 63.99 70.3351 67.4485C70.3641 67.5963 71.1022 71.9294 71.1312 72.0789Z" fill="#C7D7FF"/>
<path d="M32.2811 33.7769C32.6142 33.3906 33.0651 33.1025 33.5772 32.9489C34.0894 32.7953 34.64 32.783 35.1598 32.9136C35.7262 33.0444 36.2291 33.3422 36.5902 33.7607C37.1266 34.2982 37.1087 35.0149 37.4842 35.6339C37.5936 35.8294 37.7531 35.9981 37.9492 36.1256C38.1452 36.2532 38.3721 36.3359 38.6106 36.3669C40.1841 36.4972 39.6119 34.1679 39.6835 33.3208C42.6694 32.3598 42.5979 31.3499 43.0092 28.9554C44.1806 27.8929 45.7424 27.2634 47.3934 27.1882C49.0443 27.113 50.6673 27.5974 51.9492 28.5482C53.8803 25.1764 55.9543 25.5999 56.8483 26.6587C57.5182 27.8908 57.9765 29.2092 58.2073 30.568C58.6416 32.6006 58.8096 34.6729 58.7079 36.7415C58.3145 44.7719 55.4001 46.7103 53.9518 47.2479C52.5035 47.7854 50.7512 47.3944 48.0692 46.9384V51.825C51.0039 57.0601 52.6629 62.8109 52.9326 68.684C48.6771 61.3377 42.0079 57.3958 38.861 54.7407C38.1334 54.1427 37.4907 53.4642 36.9478 52.7209V40.0156C36.9478 40.0156 35.7856 41.1558 33.944 39.8201C31.405 37.9795 30.654 35.4547 32.2811 33.7769Z" fill="#FFA8A7"/>
<path d="M52.3767 65.6577C53.6587 68.4548 53.8419 74.9998 53.8419 74.9998C53.8419 74.9998 52.5432 68.9163 46.4661 66.7766C46.4661 66.4829 46.4661 62.3292 46.4661 62.3292C46.4661 62.3292 38.341 60.5811 36.6761 59.9238L34.8945 51.9522C34.8945 51.9522 36.06 49.4908 37.059 49.4209V51.1411C39.7467 52.9225 42.3199 54.8225 44.7678 56.8331C49.1966 60.4832 51.0947 62.8467 52.3767 65.6577Z" fill="#111111"/>
<path d="M48 49.1055C49.6742 49.5503 54.5294 55.5945 56.1199 57.7728L54.3285 61.9454C55.4024 62.9619 56.3513 64.0834 57.1579 65.2897L53.5081 75.0002C53.5081 75.0002 53.843 62.0528 48 52.2043V49.1055Z" fill="#111111"/>
</g>
<defs>
<clipPath id="clip0_2807_2776">
<rect width="84" height="84" rx="8" fill="white"/>
</clipPath>
</defs>
</svg>
