<svg width="84" height="84" viewBox="0 0 84 84" fill="none" xmlns="http://www.w3.org/2000/svg">
<g clip-path="url(#clip0_3023_1575)">
<circle cx="42" cy="42" r="41.75" fill="white" stroke="#C0C0C0" stroke-width="0.5"/>
<path d="M25.3101 34.6122C24.897 35.0278 24.5764 35.5677 24.3788 36.1805C24.1812 36.7934 24.1131 37.4588 24.1811 38.1135C24.2491 38.7682 24.4508 39.3904 24.7672 39.9209C25.0835 40.4515 25.5039 40.8728 25.9884 41.1447C27.1601 42.9609 28.5442 44.549 30.0947 45.8562C33.6968 48.5887 37.8095 50.1104 42.0287 50.2718C42.5603 50.2718 43.0186 49.9759 43.7519 49.8849C44.7968 49.7483 46.3 49.7711 46.6849 50.8636C47.0292 51.6377 47.5374 52.2802 48.1545 52.7215C48.7717 53.1628 49.4743 53.3861 50.1863 53.3673C50.9408 53.2843 51.6447 52.861 52.1648 52.1774C52.685 51.4938 52.9855 50.5973 53.0094 49.6573C53.6536 49.9185 54.3457 49.9369 54.9982 49.7101C55.6508 49.4832 56.2346 49.0213 56.6758 48.3827C57.0541 47.7424 57.258 46.9689 57.258 46.1748C57.258 45.3807 57.0541 44.6073 56.6758 43.967C57.3123 43.7755 57.8932 43.3673 58.353 42.7883C58.8129 42.2092 59.1335 41.4824 59.2789 40.6894C59.4188 39.9491 59.3624 39.1724 59.118 38.4752C58.8735 37.7779 58.4541 37.1973 57.9223 36.8201C58.5647 36.6181 59.14 36.1715 59.5674 35.5428C59.9949 34.9141 60.2529 34.1351 60.3054 33.3149C60.4154 32.0858 59.6272 29.1951 57.684 28.9903C58.1442 28.2142 58.422 27.295 58.4867 26.3347C58.5515 25.3744 58.4005 24.4106 58.0507 23.5504C57.5824 22.4486 56.8272 21.5764 55.9083 21.0762C54.9894 20.576 53.961 20.4774 52.9911 20.7964C53.1203 20.0426 53.115 19.2628 52.9757 18.5117C52.8364 17.7607 52.5663 17.0567 52.1845 16.449C51.7359 15.8198 51.1859 15.3143 50.5702 14.9654C49.9544 14.6165 49.2866 14.4318 48.6098 14.4233C47.6003 14.3721 46.6024 14.7057 45.7501 15.3793C45.4411 14.3916 44.9 13.5422 44.1971 12.9415C43.4942 12.3407 42.662 12.0164 41.8087 12.0106C40.9543 11.9454 40.1026 12.1822 39.3522 12.6935C38.97 12.9778 38.6187 13.322 38.3073 13.7177C38.1973 13.8542 37.5007 14.833 37.5924 14.9923C37.1667 14.3257 36.5899 13.8328 35.9363 13.5772C35.2828 13.3216 34.5826 13.315 33.926 13.5583C33.2806 13.8289 32.7213 14.3475 32.3291 15.039C31.9369 15.7306 31.7321 16.5593 31.7446 17.4049C31.1973 16.8187 30.4934 16.5077 29.7709 16.533C29.0484 16.5583 28.3597 16.918 27.8399 17.5415C27.6127 17.8619 27.4401 18.236 27.3324 18.6413C27.2248 19.0467 27.1843 19.4749 27.2134 19.9002C27.2425 20.3255 27.3406 20.7391 27.5019 21.116C27.6631 21.493 27.8841 21.8256 28.1516 22.0937C27.6562 21.9736 27.1432 22.0445 26.6812 22.2967C26.2192 22.549 25.8303 22.9705 25.5668 23.5049C25.3341 24.0392 25.2527 24.655 25.3358 25.2535C25.4189 25.8521 25.6617 26.3986 26.0251 26.8052C25.4351 27.1292 24.9245 27.6407 24.5447 28.2882C24.1649 28.9356 23.9294 29.6959 23.8619 30.4925C23.7955 31.2761 23.8941 32.0677 24.1479 32.7898C24.4018 33.5119 24.8022 34.1399 25.3101 34.6122Z" fill="#111111"/>
<path d="M31.2627 58.5792L34.1048 51.316L48.789 49.1055L50.3667 65.1834L35.5246 65.4992L31.2627 58.5792Z" fill="#9E6767"/>
<path d="M53.1636 45.891C52.5857 46.3114 51.8885 46.5267 51.1791 46.5037C50.4697 46.4807 49.7873 46.2208 49.2367 45.7638V54.0535C49.2367 54.0535 49.2367 56.1736 44.5618 59.0358C41.6945 60.8379 39.2428 60.9439 36.2509 64.421C35.3935 62.3547 35.0509 60.104 35.2535 57.8697V53.9899C33.8093 54.1305 32.3553 54.1305 30.9111 53.9899C29.565 53.682 28.3412 52.9669 27.3997 51.938C26.4582 50.9092 25.8427 49.6145 25.6336 48.2231C24.3246 43.3256 24.9688 36.3928 26.8803 26.8946C29.9761 24.4776 39.8453 23.7567 46.3071 27.997C45.9539 33.5942 47.4498 36.0959 47.429 38.1313C47.7228 38.7261 48.1248 39.2584 48.6133 39.7001C49.6107 40.6118 50.4418 38.3009 51.2936 37.3892C51.6329 37.0067 52.0616 36.7182 52.5397 36.5506C53.0178 36.383 53.5297 36.3417 54.0277 36.4306C54.5257 36.5195 54.9935 36.7357 55.3874 37.0591C55.7813 37.3824 56.0884 37.8024 56.2802 38.2797C57.6931 41.2267 55.0959 44.6401 53.1636 45.891Z" fill="#9E6767"/>
<path d="M73.4082 69.8855C72.8587 70.5029 72.2887 71.1076 71.6982 71.6982C63.7655 79.6307 53.2182 83.9996 41.9997 83.9996C32.3034 83.9996 23.1092 80.736 15.6708 74.7281C15.666 74.725 15.6629 74.7218 15.6582 74.717C14.6713 73.9214 13.7161 73.075 12.7939 72.1813C12.8113 72.0424 12.8303 71.905 12.8508 71.7691C12.9803 70.8534 13.124 69.9802 13.285 69.1765C14.6034 62.5892 31.9513 55.6734 32.4029 55.4933C32.4092 55.4918 32.4124 55.4902 32.4124 55.4902C32.4124 55.4902 34.645 63.7197 44.2118 63.6139C50.7282 63.5429 49.465 55.4902 49.465 55.4902C49.465 55.4902 49.5439 55.506 49.6924 55.5376C51.5745 55.9371 64.6419 58.8076 69.7971 62.725C71.3682 63.9186 72.4955 66.4608 73.3055 69.4923C73.3403 69.6218 73.3734 69.7544 73.4082 69.8855Z" fill="#C7D7FF"/>
</g>
<defs>
<clipPath id="clip0_3023_1575">
<rect width="84" height="84" rx="8" fill="white"/>
</clipPath>
</defs>
</svg>
