<svg width="84" height="84" viewBox="0 0 84 84" fill="none" xmlns="http://www.w3.org/2000/svg">
<circle cx="42" cy="42" r="41.75" fill="white" stroke="#C0C0C0" stroke-width="0.5"/>
<g clip-path="url(#clip0_3023_1663)">
<path d="M42 19C34.944 19.03 26.75 20.218 18 23.7C18 23.7 18.392 24.748 19.344 26.492C27.348 22.978 35.17 21.872 42 21.92V21.926C48.83 21.866 56.654 22.982 64.656 26.486C65.726 24.55 66 23.694 66 23.694C57.25 20.226 49.056 19.03 42 19Z" fill="#C70B01"/>
<path d="M35.2374 29.0679L41.9994 66.9999L48.7214 29.0779C55.1194 29.0779 57.1374 29.7779 57.4294 32.6579C57.4294 32.6579 61.7294 31.0519 63.8934 27.7819C55.4394 23.8519 46.9494 23.6719 46.9494 23.6719L41.9994 29.7239V29.7279H41.9914L41.9994 29.7239L37.0514 23.6799C37.0514 23.6799 28.5614 23.8619 20.1094 27.7939C22.2754 31.0639 26.5694 32.6539 26.5694 32.6539C26.8614 29.7759 28.8774 29.0679 35.2374 29.0679Z" fill="#C70B01"/>
<path d="M42 19C34.944 19.03 26.75 20.218 18 23.7C18 23.7 18.392 24.748 19.344 26.492C27.184 23.052 34.85 21.92 41.58 21.92C41.72 21.92 41.86 21.92 42 21.922V21.928V19V19Z" fill="#AD0A01"/>
<path d="M37.0514 23.6797C37.0514 23.6797 28.5614 23.8617 20.1094 27.7937C22.2754 31.0637 26.5694 32.6537 26.5694 32.6537C26.8614 29.7757 28.8794 29.0697 35.2394 29.0697L41.9994 66.9997V29.7237V29.7277H41.9914L41.9994 29.7237L37.0514 23.6797Z" fill="#AD0A01"/>
</g>
<defs>
<clipPath id="clip0_3023_1663">
<rect width="48" height="48" fill="white" transform="translate(18 19)"/>
</clipPath>
</defs>
</svg>
