<svg width="70" height="22" viewBox="0 0 70 22" fill="none" xmlns="http://www.w3.org/2000/svg">
<path d="M10.612 21.42C8.596 21.42 6.85533 20.9813 5.39 20.104C3.934 19.2267 2.80933 17.9993 2.016 16.422C1.232 14.8447 0.84 13.0107 0.84 10.92C0.84 8.82933 1.232 6.99533 2.016 5.418C2.80933 3.84067 3.934 2.61333 5.39 1.736C6.85533 0.858666 8.596 0.42 10.612 0.42C12.628 0.42 14.364 0.858666 15.82 1.736C17.2853 2.61333 18.41 3.84067 19.194 5.418C19.9873 6.99533 20.384 8.82933 20.384 10.92C20.384 13.0107 19.9873 14.8447 19.194 16.422C18.41 17.9993 17.2853 19.2267 15.82 20.104C14.364 20.9813 12.628 21.42 10.612 21.42ZM10.612 17.836C11.8907 17.8547 12.9547 17.5793 13.804 17.01C14.6533 16.4407 15.288 15.6333 15.708 14.588C16.1373 13.5427 16.352 12.32 16.352 10.92C16.352 9.52 16.1373 8.30667 15.708 7.28C15.288 6.25333 14.6533 5.45533 13.804 4.886C12.9547 4.31667 11.8907 4.02267 10.612 4.004C9.33333 3.98533 8.26933 4.26067 7.42 4.83C6.57067 5.39933 5.93133 6.20667 5.502 7.252C5.082 8.29733 4.872 9.52 4.872 10.92C4.872 12.32 5.082 13.5333 5.502 14.56C5.93133 15.5867 6.57067 16.3847 7.42 16.954C8.26933 17.5233 9.33333 17.8173 10.612 17.836ZM24.4388 21V5.936C24.4388 5.55333 24.4481 5.11933 24.4668 4.634C24.4854 4.14867 24.5601 3.65867 24.6908 3.164C24.8308 2.66933 25.0828 2.22133 25.4468 1.82C25.9134 1.29733 26.4174 0.942665 26.9588 0.755999C27.5094 0.559998 28.0414 0.457332 28.5548 0.447999C29.0681 0.429333 29.5068 0.42 29.8708 0.42H31.7468V3.5H30.0108C29.4134 3.5 28.9701 3.654 28.6808 3.962C28.3914 4.26067 28.2468 4.62 28.2468 5.04V21H24.4388ZM22.0588 8.82V5.88H31.7468V8.82H22.0588ZM34.1268 21V5.936C34.1268 5.55333 34.1361 5.11933 34.1548 4.634C34.1734 4.14867 34.2481 3.65867 34.3788 3.164C34.5188 2.66933 34.7708 2.22133 35.1348 1.82C35.6014 1.29733 36.1054 0.942665 36.6467 0.755999C37.1974 0.559998 37.7294 0.457332 38.2428 0.447999C38.7561 0.429333 39.1948 0.42 39.5588 0.42H41.4348V3.5H39.6988C39.1014 3.5 38.6581 3.654 38.3688 3.962C38.0794 4.26067 37.9348 4.62 37.9348 5.04V21H34.1268ZM31.7468 8.82V5.88H41.4348V8.82H31.7468ZM50.1677 21.42C48.6184 21.42 47.251 21.0887 46.0657 20.426C44.8897 19.754 43.9657 18.8347 43.2937 17.668C42.631 16.492 42.2997 15.148 42.2997 13.636C42.2997 11.984 42.6264 10.5467 43.2797 9.324C43.933 8.10133 44.8337 7.154 45.9817 6.482C47.1297 5.80067 48.4504 5.46 49.9437 5.46C51.5304 5.46 52.879 5.83333 53.9897 6.58C55.1004 7.32667 55.9217 8.37667 56.4537 9.73C56.9857 11.0833 57.1724 12.6747 57.0137 14.504H53.2477V13.104C53.2477 11.564 53.0004 10.458 52.5057 9.786C52.0204 9.10467 51.2224 8.764 50.1117 8.764C48.8144 8.764 47.8577 9.16067 47.2417 9.954C46.635 10.738 46.3317 11.9 46.3317 13.44C46.3317 14.8493 46.635 15.9413 47.2417 16.716C47.8577 17.4813 48.7584 17.864 49.9437 17.864C50.6904 17.864 51.3297 17.7007 51.8617 17.374C52.3937 17.0473 52.7997 16.576 53.0797 15.96L56.8877 17.052C56.3184 18.4333 55.4177 19.5067 54.1857 20.272C52.963 21.0373 51.6237 21.42 50.1677 21.42ZM45.1557 14.504V11.676H55.1797V14.504H45.1557ZM60.1748 21V5.88H63.5348V9.576L63.1708 9.1C63.3668 8.57733 63.6282 8.10133 63.9548 7.672C64.2815 7.24267 64.6828 6.888 65.1588 6.608C65.5228 6.384 65.9195 6.21133 66.3488 6.09C66.7782 5.95933 67.2215 5.88 67.6788 5.852C68.1362 5.81467 68.5935 5.824 69.0508 5.88V9.436C68.6308 9.30533 68.1408 9.26333 67.5808 9.31C67.0302 9.34733 66.5308 9.47333 66.0828 9.688C65.6348 9.89333 65.2568 10.1687 64.9488 10.514C64.6408 10.85 64.4075 11.2513 64.2488 11.718C64.0902 12.1753 64.0108 12.6933 64.0108 13.272V21H60.1748Z" fill="#111111"/>
</svg>
